<svg width="135" height="132" viewBox="0 0 135 132" fill="none" xmlns="http://www.w3.org/2000/svg">
<path d="M51.5 48.2128C45.1591 43.2358 35.9663 42.4954 27.5976 43.2593C17.8512 44.1583 8.01469 47.208 1.88619 49.7524C1.32387 49.9858 0.847016 50.362 0.51256 50.8361C0.178104 51.3102 0.000171054 51.8621 0 52.426L0 117.063C0.000149105 117.554 0.135427 118.038 0.393441 118.47C0.651456 118.901 1.02396 119.267 1.47683 119.533C1.9297 119.799 2.44847 119.957 2.9856 119.992C3.52274 120.028 4.06108 119.94 4.55131 119.736C10.2292 117.386 19.3769 114.56 28.2413 113.743C37.3118 112.908 44.9144 114.254 48.9894 118.896C49.291 119.239 49.6731 119.516 50.1077 119.706C50.5422 119.897 51.018 119.996 51.5 119.996C51.982 119.996 52.4578 119.897 52.8923 119.706C53.3268 119.516 53.709 119.239 54.0106 118.896C58.0856 114.254 65.6883 112.908 74.7523 113.743C83.6231 114.56 92.7773 117.386 98.4487 119.736C98.9389 119.94 99.4773 120.028 100.014 119.992C100.552 119.957 101.07 119.799 101.523 119.533C101.976 119.267 102.349 118.901 102.607 118.47C102.865 118.038 103 117.554 103 117.063V52.426C103 51.8621 102.822 51.3102 102.487 50.8361C102.153 50.362 101.676 49.9858 101.114 49.7524C94.9853 47.208 85.1488 44.1583 75.4024 43.2593C67.0337 42.4895 57.8409 43.2358 51.5 48.2128Z" fill="white"/>
<path d="M108 8C108.762 8 109.494 8.27656 110.033 8.76885C110.572 9.26113 110.875 9.92881 110.875 10.625V26.375H128.125C128.887 26.375 129.619 26.6516 130.158 27.1438C130.697 27.6361 131 28.3038 131 29C131 29.6962 130.697 30.3639 130.158 30.8562C129.619 31.3484 128.887 31.625 128.125 31.625H110.875V47.375C110.875 48.0712 110.572 48.7389 110.033 49.2312C109.494 49.7234 108.762 50 108 50C107.238 50 106.506 49.7234 105.967 49.2312C105.428 48.7389 105.125 48.0712 105.125 47.375V31.625H87.875C87.1125 31.625 86.3812 31.3484 85.8421 30.8562C85.3029 30.3639 85 29.6962 85 29C85 28.3038 85.3029 27.6361 85.8421 27.1438C86.3812 26.6516 87.1125 26.375 87.875 26.375H105.125V10.625C105.125 9.92881 105.428 9.26113 105.967 8.76885C106.506 8.27656 107.238 8 108 8V8Z" fill="white"/>
</svg>
