<svg width="100" height="100" viewBox="0 0 100 100" fill="white" xmlns="http://www.w3.org/2000/svg">
<path d="M18.75 87.5C18.75 87.5 12.5 87.5 12.5 81.25C12.5 75 18.75 56.25 50 56.25C81.25 56.25 87.5 75 87.5 81.25C87.5 87.5 81.25 87.5 81.25 87.5H18.75ZM50 50C54.9728 50 59.7419 48.0246 63.2583 44.5083C66.7746 40.9919 68.75 36.2228 68.75 31.25C68.75 26.2772 66.7746 21.5081 63.2583 17.9917C59.7419 14.4754 54.9728 12.5 50 12.5C45.0272 12.5 40.2581 14.4754 36.7417 17.9917C33.2254 21.5081 31.25 26.2772 31.25 31.25C31.25 36.2228 33.2254 40.9919 36.7417 44.5083C40.2581 48.0246 45.0272 50 50 50V50Z" fill="white"/>
</svg>
