<svg width="100" height="82" viewBox="0 0 100 82" fill="none" xmlns="http://www.w3.org/2000/svg">
<path d="M50 5.54456C43.8437 0.250805 34.9188 -0.536695 26.7938 0.275805C17.3313 1.23206 7.78125 4.47581 1.83125 7.18206C1.28531 7.43035 0.822346 7.83051 0.497631 8.33476C0.172917 8.83901 0.000166071 9.42605 0 10.0258L0 78.7758C0.000144762 79.2987 0.131482 79.8131 0.381982 80.2721C0.632482 80.731 0.994136 81.1198 1.43382 81.4028C1.8735 81.6857 2.37715 81.8539 2.89865 81.8917C3.42014 81.9296 3.9428 81.836 4.41875 81.6196C9.93125 79.1196 18.8125 76.1133 27.4188 75.2446C36.225 74.3571 43.6063 75.7883 47.5625 80.7258C47.8553 81.0908 48.2264 81.3853 48.6482 81.5878C49.0701 81.7902 49.5321 81.8952 50 81.8952C50.4679 81.8952 50.9299 81.7902 51.3518 81.5878C51.7736 81.3853 52.1447 81.0908 52.4375 80.7258C56.3938 75.7883 63.775 74.3571 72.575 75.2446C81.1875 76.1133 90.075 79.1196 95.5813 81.6196C96.0572 81.836 96.5799 81.9296 97.1014 81.8917C97.6228 81.8539 98.1265 81.6857 98.5662 81.4028C99.0059 81.1198 99.3675 80.731 99.618 80.2721C99.8685 79.8131 99.9999 79.2987 100 78.7758V10.0258C99.9998 9.42605 99.8271 8.83901 99.5024 8.33476C99.1777 7.83051 98.7147 7.43035 98.1687 7.18206C92.2187 4.47581 82.6688 1.23206 73.2063 0.275805C65.0813 -0.542945 56.1563 0.250805 50 5.54456Z" fill="#45B69C"/>
</svg>
